<mxfile host="app.diagrams.net" agent="Mozilla/5.0 (Windows NT 10.0; Win64; x64) AppleWebKit/537.36 (KHTML, like Gecko) Chrome/126.0.0.0 Safari/537.36 Edg/126.0.0.0" version="26.0.16">
  <diagram name="第 1 页" id="n63b4nC1y1BCJf75-sI9">
    <mxGraphModel dx="1002" dy="577" grid="1" gridSize="10" guides="1" tooltips="1" connect="1" arrows="1" fold="1" page="1" pageScale="1" pageWidth="827" pageHeight="1169" math="0" shadow="0">
      <root>
        <mxCell id="0" />
        <mxCell id="1" parent="0" />
        <mxCell id="mvJgyyiXs0eFSsutSy1s-8" style="edgeStyle=orthogonalEdgeStyle;rounded=0;orthogonalLoop=1;jettySize=auto;html=1;exitX=0;exitY=0.5;exitDx=0;exitDy=0;entryX=0;entryY=0.5;entryDx=0;entryDy=0;" edge="1" parent="1" source="mvJgyyiXs0eFSsutSy1s-1" target="mvJgyyiXs0eFSsutSy1s-2">
          <mxGeometry relative="1" as="geometry">
            <Array as="points">
              <mxPoint x="220" y="360" />
              <mxPoint x="220" y="150" />
            </Array>
          </mxGeometry>
        </mxCell>
        <mxCell id="mvJgyyiXs0eFSsutSy1s-1" value="&lt;font style=&quot;font-size: 24px;&quot;&gt;环境&lt;/font&gt;" style="ellipse;whiteSpace=wrap;html=1;fillColor=#dae8fc;strokeColor=#6c8ebf;" vertex="1" parent="1">
          <mxGeometry x="300" y="320" width="190" height="80" as="geometry" />
        </mxCell>
        <mxCell id="mvJgyyiXs0eFSsutSy1s-4" style="edgeStyle=orthogonalEdgeStyle;rounded=0;orthogonalLoop=1;jettySize=auto;html=1;exitX=1;exitY=0.5;exitDx=0;exitDy=0;entryX=1;entryY=0.5;entryDx=0;entryDy=0;" edge="1" parent="1" source="mvJgyyiXs0eFSsutSy1s-2" target="mvJgyyiXs0eFSsutSy1s-1">
          <mxGeometry relative="1" as="geometry">
            <Array as="points">
              <mxPoint x="580" y="150" />
              <mxPoint x="580" y="360" />
            </Array>
          </mxGeometry>
        </mxCell>
        <mxCell id="mvJgyyiXs0eFSsutSy1s-2" value="&lt;font style=&quot;font-size: 24px;&quot;&gt;智能体&lt;/font&gt;" style="rounded=1;whiteSpace=wrap;html=1;fillColor=#ffe6cc;strokeColor=#d79b00;" vertex="1" parent="1">
          <mxGeometry x="310" y="110" width="170" height="80" as="geometry" />
        </mxCell>
        <mxCell id="mvJgyyiXs0eFSsutSy1s-7" value="动作 &lt;i&gt;a&lt;/i&gt;" style="text;html=1;align=center;verticalAlign=middle;whiteSpace=wrap;rounded=0;" vertex="1" parent="1">
          <mxGeometry x="580" y="240" width="60" height="30" as="geometry" />
        </mxCell>
        <mxCell id="mvJgyyiXs0eFSsutSy1s-9" value="状态 &lt;i&gt;s&lt;/i&gt;&lt;div&gt;奖励&lt;i&gt; r&lt;/i&gt;&lt;/div&gt;" style="text;html=1;align=center;verticalAlign=middle;whiteSpace=wrap;rounded=0;" vertex="1" parent="1">
          <mxGeometry x="160" y="240" width="60" height="30" as="geometry" />
        </mxCell>
      </root>
    </mxGraphModel>
  </diagram>
</mxfile>
